<?xml version="1.0" encoding="UTF-8"?>
<svg id="Ebene_2" data-name="Ebene 2" xmlns="http://www.w3.org/2000/svg" viewBox="0 0 62.7 62.7">
  <defs>
    <style>
      .cls-1 {
        fill: #313338;
      }

      .cls-2 {
        fill: #dbdee1;
      }
    </style>
  </defs>
  <g id="Ebene_1-2" data-name="Ebene 1">
    <g>
      <circle class="cls-1" cx="31.35" cy="31.35" r="31.35"/>
      <path class="cls-2" d="M44.16,18.45c-2.39-1.12-4.94-1.93-7.62-2.39-.33.59-.71,1.39-.98,2.03-2.84-.43-5.65-.43-8.44,0-.26-.63-.66-1.43-.99-2.03-2.67.46-5.23,1.28-7.62,2.4-4.82,7.28-6.13,14.38-5.47,21.39,3.2,2.39,6.29,3.84,9.34,4.79.75-1.03,1.42-2.14,2-3.29-1.1-.42-2.15-.93-3.15-1.53.26-.2.52-.4.77-.61,6.07,2.84,12.67,2.84,18.67,0,.25.21.51.42.77.61-1,.6-2.06,1.12-3.16,1.54.58,1.16,1.25,2.26,2,3.29,3.05-.95,6.15-2.4,9.35-4.79.77-8.12-1.31-15.15-5.49-21.39ZM25.22,35.54c-1.82,0-3.32-1.7-3.32-3.77s1.46-3.78,3.32-3.78,3.35,1.7,3.32,3.78c0,2.07-1.46,3.77-3.32,3.77ZM37.48,35.54c-1.82,0-3.32-1.7-3.32-3.77s1.46-3.78,3.32-3.78,3.35,1.7,3.32,3.78c0,2.07-1.46,3.77-3.32,3.77Z"/>
    </g>
  </g>
</svg>